<svg xmlns="http://www.w3.org/2000/svg" width="86.848" height="86.848" viewBox="0 0 86.848 86.848">
  <g transform="translate(-36.425 -69.961)">
    <circle cx="43.424" cy="43.424" r="43.424" transform="translate(36.425 69.961)" fill="#f2f2f2"/>
    <g transform="translate(52.962 96.33)">
      <rect width="3.089" height="6.844" rx="0.435" transform="translate(13.604 27.264)" fill="#223440"/>
      <rect width="3.089" height="6.844" rx="0.435" transform="translate(37.082 27.264)" fill="#223440"/>
      <path d="M43.227,82.221V93.94a9.326,9.326,0,0,0,9.325,9.325H81.976A9.326,9.326,0,0,0,91.3,93.94V82.221Z" transform="translate(-40.378 -73.648)" fill="#f08077"/>
      <rect width="53.775" height="5.348" rx="0.322" transform="translate(0 8.574)" fill="#223440"/>
      <rect width="1.102" height="6.543" transform="translate(9.339 2.905)" fill="#223440"/>
      <path d="M46.618,82.117a1.79,1.79,0,0,1,3.58,0h1.114a2.9,2.9,0,1,0-5.808,0Z" transform="translate(-36.166 -79.213)" fill="#223440"/>
    </g>
  </g>
</svg>
