<svg xmlns="http://www.w3.org/2000/svg" width="27.097" height="24.167" viewBox="0 0 27.097 24.167">
  <g id="basket_icone" data-name="basket icone" transform="translate(0.753 0.835)">
    <path id="Tracé_16" data-name="Tracé 16" d="M197.953,32.582H184.4c-1.382,0-2.637-1.275-3.213-3.266L178.4,19.7c-.078-.271.047-.582.235-.582h25.074c.188,0,.313.31.235.582l-2.778,9.608C200.593,31.305,199.336,32.582,197.953,32.582Z" transform="translate(-178.38 -10.001)" fill="none" stroke="#223440" stroke-miterlimit="10" stroke-width="1.5"/>
    <path id="Tracé_17" data-name="Tracé 17" d="M190.561,10.3,184,19.123h14.354L191.788,10.3a.777.777,0,0,0-1.089-.139A.789.789,0,0,0,190.561,10.3Z" transform="translate(-178.38 -10.001)" fill="none" stroke="#223440" stroke-miterlimit="10" stroke-width="1.5"/>
  </g>
</svg>
