<svg xmlns="http://www.w3.org/2000/svg" width="86" height="86" viewBox="0 0 86 86">
  <g transform="translate(-44.858 -6.277)">
    <circle cx="43" cy="43" r="43" transform="translate(44.858 6.277)" fill="#f2f2f2"/>
    <g transform="translate(67.932 28.5)">
      <path d="M88.3,28.954a12.75,12.75,0,0,0-7.264-4.479V15.751a1.6,1.6,0,0,0-1.6-1.6h-24.8a1.6,1.6,0,0,0-1.6,1.6v44h6v-39.8H75.567v4.524A12.75,12.75,0,0,0,68.3,28.954a.8.8,0,0,0,.621,1.3H87.677A.8.8,0,0,0,88.3,28.954Z" transform="translate(-53.034 -14.151)" fill="#f08077"/>
      <circle cx="0.966" cy="0.966" r="0.966" transform="translate(11.292 25.149)" fill="#223440"/>
      <circle cx="0.966" cy="0.966" r="0.966" transform="translate(37.306 25.149)" fill="#223440"/>
      <circle cx="0.966" cy="0.966" r="0.966" transform="translate(28.635 25.149)" fill="#223440"/>
      <circle cx="0.966" cy="0.966" r="0.966" transform="translate(19.964 25.149)" fill="#223440"/>
      <circle cx="0.966" cy="0.966" r="0.966" transform="translate(13.492 21.839)" fill="#223440"/>
      <circle cx="0.966" cy="0.966" r="0.966" transform="translate(35.107 21.839)" fill="#223440"/>
      <circle cx="0.966" cy="0.966" r="0.966" transform="translate(27.902 21.839)" fill="#223440"/>
      <circle cx="0.966" cy="0.966" r="0.966" transform="translate(20.697 21.839)" fill="#223440"/>
      <circle cx="0.973" cy="0.973" r="0.973" transform="translate(15.711 18.516)" fill="#223440"/>
      <circle cx="0.973" cy="0.973" r="0.973" transform="translate(32.874 18.516)" fill="#223440"/>
      <circle cx="0.973" cy="0.973" r="0.973" transform="translate(27.153 18.516)" fill="#223440"/>
      <circle cx="0.973" cy="0.973" r="0.973" transform="translate(21.432 18.516)" fill="#223440"/>
    </g>
  </g>
</svg>
