<svg xmlns="http://www.w3.org/2000/svg" width="87" height="87" viewBox="0 0 87 87">
  <g transform="translate(-46.081 -43.744)">
    <circle cx="43.5" cy="43.5" r="43.5" transform="translate(46.081 43.744)" fill="#f2f2f2"/>
    <g transform="translate(65.012 64.108)">
      <path d="M66.8,50.877c-3.409,0-6.17,3.029-6.17,6.766V70.4h2.961V57.643h0a3.184,3.184,0,1,1,6.287,0h3.095C72.969,53.906,70.206,50.877,66.8,50.877Z" transform="translate(-38.029 -50.877)" fill="#223440"/>
      <path d="M.3,0H3.276a.3.3,0,0,1,.3.3V3.572a0,0,0,0,1,0,0H0a0,0,0,0,1,0,0V.3A.3.3,0,0,1,.3,0Z" transform="translate(30.523 15.953)" fill="#223440"/>
      <path d="M.273,0H3.3a.273.273,0,0,1,.273.273v3.3a0,0,0,0,1,0,0H0a0,0,0,0,1,0,0V.273A.273.273,0,0,1,.273,0Z" transform="translate(15.044 15.953)" fill="#223440"/>
      <path d="M100.411,57.716H54.154a1.361,1.361,0,0,0-1.442,1.262v5.47c0,8.736,8.088,15.82,18.067,15.82h13c9.978,0,18.067-7.083,18.067-15.82V58.975A1.36,1.36,0,0,0,100.411,57.716Z" transform="translate(-52.712 -38.19)" fill="#f08077"/>
    </g>
  </g>
</svg>
