<svg xmlns="http://www.w3.org/2000/svg" width="88.05" height="88.05" viewBox="0 0 88.05 88.05">
  <g  transform="translate(-83.552 -6.636)">
    <circle cx="44.025" cy="44.025" r="44.025" transform="translate(83.552 6.636)" fill="#f2f2f2"/>
    <g transform="translate(108.503 27.264)">
      <rect width="2.721" height="6.03" rx="0.378" transform="translate(5.311 40.765)" fill="#223440"/>
      <path d="M93.692,13.775a1.5,1.5,0,0,0-1.505,1.505v40.7a1.575,1.575,0,0,0,1.575,1.575h16.727V13.775Z" transform="translate(-92.187 -13.775)" fill="#f08077"/>
      <path d="M115.852,13.775h-16.8V15.63h14.612a1.509,1.509,0,0,1,1.508,1.508V53.951a1.509,1.509,0,0,1-1.508,1.508H99.055v2.095h10.422v2.089a1.019,1.019,0,0,0,1.089.928h.54a1.022,1.022,0,0,0,1.092-.928V57.554h3.652a1.5,1.5,0,0,0,1.505-1.505V15.283A1.507,1.507,0,0,0,115.852,13.775Z" transform="translate(-79.21 -13.775)" fill="#223440"/>
      <circle cx="1.493" cy="1.493" r="1.493" transform="translate(19.845 20.397)" fill="#f08077"/>
      <circle cx="1.493" cy="1.493" r="1.493" transform="translate(13.795 20.397)" fill="#223440"/>
    </g>
  </g>
</svg>
