<svg xmlns="http://www.w3.org/2000/svg" width="40" height="40" viewBox="0 0 40 40">
  <ellipse cx="20" cy="20" rx="20" ry="20" transform="translate(0 0)" fill="#efefee"/>
  <g transform="translate(10.608 9.168)">
    <path d="M32.057,72.652c-1.469-.115-2.087-.843-3.24-1.543-.633,3.323-1.408,6.51-3.7,8.175-.709-5.024,1.04-8.8,1.851-12.8-1.383-2.329.166-7.016,3.086-5.862,3.591,1.421-3.11,8.66,1.389,9.565,4.7.944,6.613-8.149,3.7-11.106-4.208-4.271-12.248-.1-11.26,6.016.242,1.493,1.786,1.948.617,4.01-2.694-.6-3.5-2.721-3.394-5.552.166-4.636,4.165-7.881,8.176-8.33,5.072-.568,9.832,1.862,10.49,6.633.739,5.385-2.289,11.216-7.714,10.8Z" transform="translate(-21.096 -55.14)" fill="#223440"/>
  </g>
</svg>
