<svg xmlns="http://www.w3.org/2000/svg" width="85.987" height="85.987" viewBox="0 0 85.987 85.987">
  <g transform="translate(-6.078 -84.008)">
    <circle cx="42.994" cy="42.994" r="42.994" transform="translate(6.078 84.008)" fill="#f2f2f2"/>
    <g transform="translate(31.835 109.478)">
      <rect width="4.224" height="5.649" rx="0.177" transform="translate(32.358 5.256)" fill="#223440"/>
      <path d="M27.987,93.034a1.945,1.945,0,0,0-2.1,1.741V131.3a1.945,1.945,0,0,0,2.1,1.741,1.946,1.946,0,0,0,2.1-1.741V94.775A1.946,1.946,0,0,0,27.987,93.034Z" transform="translate(4.255 -93.034)" fill="#f08077"/>
      <path d="M25.319,93.034a1.948,1.948,0,0,0-2.1,1.741V131.3a1.948,1.948,0,0,0,2.1,1.741,1.948,1.948,0,0,0,2.1-1.741V94.775A1.948,1.948,0,0,0,25.319,93.034Z" transform="translate(-0.611 -93.034)" fill="#f08077"/>
      <path d="M22.649,93.034a1.946,1.946,0,0,0-2.1,1.741V131.3a1.946,1.946,0,0,0,2.1,1.741,1.945,1.945,0,0,0,2.1-1.741V94.775A1.945,1.945,0,0,0,22.649,93.034Z" transform="translate(-5.476 -93.034)" fill="#f08077"/>
      <path d="M19.976,93.034a1.945,1.945,0,0,0-2.1,1.741V131.3a1.945,1.945,0,0,0,2.1,1.741,1.946,1.946,0,0,0,2.1-1.741V94.775A1.946,1.946,0,0,0,19.976,93.034Z" transform="translate(-10.34 -93.034)" fill="#f08077"/>
      <path d="M17.308,93.034a1.948,1.948,0,0,0-2.1,1.741V131.3a1.948,1.948,0,0,0,2.1,1.741,1.948,1.948,0,0,0,2.1-1.741V94.775A1.948,1.948,0,0,0,17.308,93.034Z" transform="translate(-15.206 -93.034)" fill="#f08077"/>
    </g>
  </g>
</svg>
