<svg xmlns="http://www.w3.org/2000/svg" width="87" height="87" viewBox="0 0 87 87">
  <g id="robinet_icone" data-name="robinet icone" transform="translate(-84.335 -43.744)">
    <circle id="Ellipse_57" data-name="Ellipse 57" cx="43.5" cy="43.5" r="43.5" transform="translate(84.335 43.744)" fill="#f2f2f2"/>
    <g id="Groupe_107" data-name="Groupe 107" transform="translate(109.801 69.913)">
      <path id="Tracé_92" data-name="Tracé 92" d="M122.111,52.91H93.88a.625.625,0,0,0-.625.625V60.73H106.7V55.2h15.414a.592.592,0,0,0,.591-.591V53.5A.592.592,0,0,0,122.111,52.91Z" transform="translate(-93.255 -52.91)" fill="#223440"/>
      <path id="Tracé_93" data-name="Tracé 93" d="M133.748,56.453H93.255V86.971H106.7V65.509l18.946-3.489h8.105a.631.631,0,0,0,.631-.628V57.081A.629.629,0,0,0,133.748,56.453Z" transform="translate(-93.255 -46.338)" fill="#f08077"/>
    </g>
  </g>
</svg>
