<svg xmlns="http://www.w3.org/2000/svg" width="87" height="87" viewBox="0 0 87 87">
  <g transform="translate(-122.418 -5.709)">
    <circle cx="43.5" cy="43.5" r="43.5" transform="translate(122.418 5.709)" fill="#f2f2f2"/>
    <g transform="translate(146.028 22.291)">
      <path d="M144.374,22.759H133.782V44.5h16.285l-2.307-8.813h2.981a12.833,12.833,0,0,0,12.734-12.928Z" transform="translate(-124.949 9.337)" fill="#f08077"/>
      <path d="M163.335,21.344H133.782v4.04h29.552a1.392,1.392,0,0,0,1.393-1.393V22.737A1.392,1.392,0,0,0,163.335,21.344Z" transform="translate(-124.949 6.712)" fill="#223440"/>
      <path d="M130.688,20.348V35.271a8.343,8.343,0,0,0,8.342,8.342h.491v-32.1A8.832,8.832,0,0,0,130.688,20.348Z" transform="translate(-130.688 -11.517)" fill="#f08077"/>
    </g>
  </g>
</svg>
