<svg xmlns="http://www.w3.org/2000/svg" width="40" height="40" viewBox="0 0 40 40">
  <ellipse cx="20" cy="20" rx="20" ry="20" transform="translate(0 0)" fill="#efefee"/>
  <path d="M70.41,58.424a14.829,14.829,0,0,0,8.645,4.056,5.046,5.046,0,0,1,2.478-4.542,3.8,3.8,0,0,1,4.965.812,11.95,11.95,0,0,0,2.822-.888,9.054,9.054,0,0,1-1.628,2.05L90,59.48l-2.142,2.187s.859,7.375-7.659,11.263c0,0-6.632,2.271-11.252-.729,0,0,5.646-.812,6.248-2.027,0,0-3-.327-3.77-2.756l1.628-.084s-2.824-.243-3.168-4.055l1.885.243C71.781,63.528,68.782,62.723,70.41,58.424Z" transform="translate(-59.48 -45.548)" fill="#223440"/>
</svg>
