<svg xmlns="http://www.w3.org/2000/svg" width="40" height="40" viewBox="0 0 40 40">
  <g transform="translate(0 0)">
    <ellipse cx="20" cy="20" rx="20" ry="20" transform="translate(0 0)" fill="#efefee"/>
    <rect width="25.967" height="25.966" transform="translate(6.977 7.02)" fill="none"/>
    <path d="M92.523,21.4a5.4,5.4,0,0,0-1.033-2.511,3.766,3.766,0,0,0-2.6-1.072c-3.635-.255-9.084-.255-9.084-.255h-.011s-5.451,0-9.084.255a3.771,3.771,0,0,0-2.6,1.072A5.39,5.39,0,0,0,67.075,21.4a37.474,37.474,0,0,0-.259,4.095v1.92a37.444,37.444,0,0,0,.259,4.095,5.39,5.39,0,0,0,1.032,2.511,4.47,4.47,0,0,0,2.864,1.082c2.077.195,8.828.255,8.828.255s5.456-.009,9.091-.265a3.76,3.76,0,0,0,2.6-1.072,5.394,5.394,0,0,0,1.033-2.51,37.3,37.3,0,0,0,.26-4.1V25.5A37.292,37.292,0,0,0,92.523,21.4Zm-15.4,8.341V22.636L84.133,26.2Z" transform="translate(-59.839 -6.459)" fill="#223440" fill-rule="evenodd"/>
  </g>
</svg>
